<?xml version="1.0" standalone="no"?>
<!DOCTYPE svg PUBLIC "-//W3C//DTD SVG 20010904//EN"
 "http://www.w3.org/TR/2001/REC-SVG-20010904/DTD/svg10.dtd">
<svg version="1.0" xmlns="http://www.w3.org/2000/svg"
 width="140.000000pt" height="140.000000pt" viewBox="0 0 140.000000 140.000000"
 preserveAspectRatio="xMidYMid meet">
<metadata>
Created by potrace 1.11, written by Peter Selinger 2001-2013
</metadata>
<g transform="translate(0.000000,140.000000) scale(0.100000,-0.100000)"
fill="#000000" stroke="none">
<path d="M189 1084 c-119 -36 -168 -180 -89 -262 38 -40 84 -63 192 -96 66
-20 92 -33 112 -57 28 -33 34 -76 15 -111 -18 -34 -88 -58 -153 -53 -84 6
-119 30 -130 87 -9 47 -22 58 -59 50 -14 -3 -17 -14 -17 -62 0 -69 10 -82 90
-119 44 -20 70 -25 130 -25 89 0 139 15 185 56 42 36 58 84 50 142 -13 81 -79
135 -210 172 -113 31 -155 64 -155 120 0 23 9 44 28 65 23 26 36 31 90 36 79
7 149 -16 157 -53 3 -13 7 -35 10 -49 5 -21 11 -25 40 -25 l35 0 0 59 c0 56
-2 62 -32 84 -72 54 -192 71 -289 41z"/>
<path d="M594 1091 c-8 -8 -4 -50 5 -55 5 -4 21 -7 35 -8 14 -1 27 -5 27 -8 1
-3 2 -118 3 -257 l1 -252 -37 -6 c-31 -6 -38 -11 -38 -30 0 -14 7 -26 18 -29
23 -8 212 -5 213 3 0 3 2 16 5 28 3 18 -2 22 -35 28 l-38 6 -2 172 c-1 95 -3
196 -5 225 -2 29 -2 51 -1 50 2 -2 31 -73 65 -158 34 -85 70 -173 79 -195 10
-22 29 -68 42 -103 23 -59 26 -63 54 -60 29 3 32 8 127 243 100 249 121 294
113 240 -2 -17 -6 -117 -7 -223 -2 -149 -5 -192 -15 -192 -40 0 -63 -17 -59
-43 3 -21 7 -22 119 -23 l117 -2 0 27 c0 23 -6 29 -37 37 l-38 9 0 250 0 250
35 11 c27 9 36 18 38 38 4 29 13 26 -115 28 l-68 1 -36 -89 c-49 -117 -48
-116 -114 -287 -32 -81 -60 -145 -63 -143 -2 3 -49 119 -104 258 -54 138 -100
253 -102 255 -4 5 -177 8 -182 4z"/>
</g>
</svg>
